<svg width="118" height="35" viewBox="0 0 118 35" fill="none" xmlns="http://www.w3.org/2000/svg">
<g filter="url(#filter0_d_35_70)">
<path d="M20.9141 21.6055V26H4.10938V0.634766H20.9141V5.01172H9.41797V11.1289H20.2637V15.207H9.41797V21.6055H20.9141ZM31.3027 26.2988C28.9473 26.2988 27.0781 25.4258 25.6953 23.6797C24.3125 21.9336 23.6211 19.5547 23.6211 16.543C23.6211 13.5547 24.3125 11.1934 25.6953 9.45898C27.0898 7.72461 28.9707 6.85742 31.3379 6.85742C32.6738 6.85742 33.8457 7.17969 34.8535 7.82422C35.873 8.46875 36.6172 9.32422 37.0859 10.3906H37.1914V0.634766H42.3242V26H37.2617V22.7656H37.1738C36.7051 23.832 35.9492 24.6875 34.9062 25.332C33.8633 25.9766 32.6621 26.2988 31.3027 26.2988ZM33.043 10.9707C31.7539 10.9707 30.7344 11.4746 29.9844 12.4824C29.2461 13.4902 28.877 14.8555 28.877 16.5781C28.877 18.3125 29.2461 19.6777 29.9844 20.6738C30.7344 21.6699 31.7539 22.168 33.043 22.168C34.3203 22.168 35.334 21.6699 36.084 20.6738C36.8457 19.666 37.2266 18.3008 37.2266 16.5781C37.2266 14.8672 36.8457 13.5078 36.084 12.5C35.334 11.4805 34.3203 10.9707 33.043 10.9707ZM62.9785 7.15625L56.5098 26H50.709L44.1875 7.15625H49.6895L53.6094 21.4648H53.7148L57.6172 7.15625H62.9785ZM79.7129 23.8027C78.0371 25.5371 75.7637 26.4043 72.8926 26.4043C70.0215 26.4043 67.748 25.5312 66.0723 23.7852C64.3965 22.0391 63.5586 19.6309 63.5586 16.5605C63.5586 13.5254 64.4023 11.1348 66.0898 9.38867C67.7891 7.63086 70.0566 6.75195 72.8926 6.75195C75.7402 6.75195 78.0078 7.63086 79.6953 9.38867C81.3828 11.1348 82.2266 13.5254 82.2266 16.5605C82.2266 19.6426 81.3887 22.0566 79.7129 23.8027ZM72.8926 22.4844C74.1582 22.4844 75.1602 21.9688 75.8984 20.9375C76.6367 19.9062 77.0059 18.4531 77.0059 16.5781C77.0059 14.7266 76.6367 13.2793 75.8984 12.2363C75.1602 11.1934 74.1582 10.6719 72.8926 10.6719C71.627 10.6719 70.6191 11.1934 69.8691 12.2363C69.1309 13.2793 68.7617 14.7266 68.7617 16.5781C68.7617 18.4531 69.1309 19.9062 69.8691 20.9375C70.6074 21.9688 71.6152 22.4844 72.8926 22.4844ZM84.8809 26V7.15625H89.8379V10.5488H89.9434C90.2715 9.35352 90.8223 8.43945 91.5957 7.80664C92.3691 7.17383 93.3125 6.85742 94.4258 6.85742C94.9648 6.85742 95.4512 6.92188 95.8848 7.05078V11.5684C95.4043 11.3691 94.7832 11.2695 94.0215 11.2695C92.7559 11.2695 91.7715 11.6387 91.0684 12.377C90.3652 13.1152 90.0137 14.1465 90.0137 15.4707V26H84.8809ZM104.814 22.5898C105.951 22.5898 106.912 22.2617 107.697 21.6055C108.494 20.9375 108.893 20.0996 108.893 19.0918V17.7207L104.92 17.9668C103.959 18.0371 103.215 18.2773 102.688 18.6875C102.172 19.0977 101.914 19.6367 101.914 20.3047C101.914 21.0078 102.178 21.5645 102.705 21.9746C103.232 22.3848 103.936 22.5898 104.814 22.5898ZM103.127 26.2988C101.311 26.2988 99.8047 25.7656 98.6094 24.6992C97.4141 23.6328 96.8164 22.2617 96.8164 20.5859C96.8164 18.875 97.4492 17.5332 98.7148 16.5605C99.9805 15.5879 101.791 15.0312 104.146 14.8906L108.893 14.6094V13.3613C108.893 12.4941 108.605 11.8145 108.031 11.3223C107.469 10.8301 106.701 10.584 105.729 10.584C104.791 10.584 104.023 10.7949 103.426 11.2168C102.84 11.6387 102.482 12.207 102.354 12.9219H97.6602C97.7539 11.0703 98.5449 9.58203 100.033 8.45703C101.521 7.32031 103.496 6.75195 105.957 6.75195C108.371 6.75195 110.305 7.32617 111.758 8.47461C113.211 9.62305 113.938 11.1465 113.938 13.0449V26H108.98V23.1172H108.875C108.359 24.1016 107.574 24.8809 106.52 25.4551C105.465 26.0176 104.334 26.2988 103.127 26.2988Z" fill="white"/>
</g>
<defs>
<filter id="filter0_d_35_70" x="0.109375" y="0.634766" width="117.828" height="33.7695" filterUnits="userSpaceOnUse" color-interpolation-filters="sRGB">
<feFlood flood-opacity="0" result="BackgroundImageFix"/>
<feColorMatrix in="SourceAlpha" type="matrix" values="0 0 0 0 0 0 0 0 0 0 0 0 0 0 0 0 0 0 127 0" result="hardAlpha"/>
<feOffset dy="4"/>
<feGaussianBlur stdDeviation="2"/>
<feColorMatrix type="matrix" values="0 0 0 0 0 0 0 0 0 0 0 0 0 0 0 0 0 0 0.25 0"/>
<feBlend mode="normal" in2="BackgroundImageFix" result="effect1_dropShadow_35_70"/>
<feBlend mode="normal" in="SourceGraphic" in2="effect1_dropShadow_35_70" result="shape"/>
</filter>
</defs>
</svg>
